<?xml version="1.0" encoding="utf-8"?>
<!-- Generator: Adobe Illustrator 16.0.0, SVG Export Plug-In . SVG Version: 6.00 Build 0)  -->
<!DOCTYPE svg PUBLIC "-//W3C//DTD SVG 1.1//EN" "http://www.w3.org/Graphics/SVG/1.1/DTD/svg11.dtd">
<svg version="1.1" id="Layer_1" xmlns="http://www.w3.org/2000/svg" xmlns:xlink="http://www.w3.org/1999/xlink" x="0px" y="0px"
	 width="120px" height="120px" viewBox="0 0 120 120" enable-background="new 0 0 120 120" xml:space="preserve">
<g>
	<path opacity="0.2" fill="#FFFFFF" stroke="#FFFFFF" stroke-width="1.8161" stroke-miterlimit="10" d="M119,60.004
		C119,92.584,92.587,119,59.994,119C27.414,119,1,92.584,1,60.004C1,27.409,27.414,1,59.994,1C92.587,1,119,27.409,119,60.004z"/>
	<path fill="#FFFFFF" stroke="#FFFFFF" stroke-width="2.177" stroke-miterlimit="10" d="M106.344,60.003
		c0,25.526-20.748,46.221-46.347,46.221c-25.592,0-46.343-20.695-46.343-46.221c0-25.536,20.751-46.225,46.343-46.225
		C85.596,13.778,106.344,34.467,106.344,60.003z"/>
</g>
<g>
	<path opacity="0.2" fill="#FFFFFF" stroke="#FFFFFF" stroke-width="1.8161" stroke-miterlimit="10" d="M118.999,56.856
		c0,32.58-26.413,58.996-59.006,58.996c-32.58,0-58.994-26.416-58.994-58.996c0-32.595,26.414-59.004,58.994-59.004
		C92.586-2.148,118.999,24.261,118.999,56.856z"/>
	<path fill="#FFFFFF" stroke="#FFFFFF" stroke-width="2.177" stroke-miterlimit="10" d="M106.343,56.855
		c0,25.526-20.748,46.221-46.347,46.221c-25.592,0-46.343-20.695-46.343-46.221c0-25.536,20.751-46.225,46.343-46.225
		C85.595,10.63,106.343,31.319,106.343,56.855z"/>
</g>
</svg>
