<?xml version="1.0" encoding="UTF-8" standalone="no"?>
<!-- Generator: Adobe Illustrator 16.0.0, SVG Export Plug-In . SVG Version: 6.00 Build 0)  -->

<svg
   xmlns:dc="http://purl.org/dc/elements/1.1/"
   xmlns:cc="http://creativecommons.org/ns#"
   xmlns:rdf="http://www.w3.org/1999/02/22-rdf-syntax-ns#"
   xmlns:svg="http://www.w3.org/2000/svg"
   xmlns="http://www.w3.org/2000/svg"
   xmlns:sodipodi="http://sodipodi.sourceforge.net/DTD/sodipodi-0.dtd"
   xmlns:inkscape="http://www.inkscape.org/namespaces/inkscape"
   version="1.1"
   id="Layer_1"
   x="0px"
   y="0px"
   width="708.66px"
   height="354.331px"
   viewBox="0 0 708.66 354.331"
   enable-background="new 0 0 708.66 354.331"
   xml:space="preserve"
   inkscape:version="0.48.5 r10040"
   sodipodi:docname="nodes-right-inverse.svg"><metadata
     id="metadata29"><rdf:RDF><cc:Work
         rdf:about=""><dc:format>image/svg+xml</dc:format><dc:type
           rdf:resource="http://purl.org/dc/dcmitype/StillImage" /><dc:title></dc:title></cc:Work></rdf:RDF></metadata><defs
     id="defs27" /><sodipodi:namedview
     pagecolor="#ffffff"
     bordercolor="#666666"
     borderopacity="1"
     objecttolerance="10"
     gridtolerance="10"
     guidetolerance="10"
     inkscape:pageopacity="0"
     inkscape:pageshadow="2"
     inkscape:window-width="1596"
     inkscape:window-height="880"
     id="namedview25"
     showgrid="false"
     inkscape:zoom="1.0986347"
     inkscape:cx="356.43432"
     inkscape:cy="177.1655"
     inkscape:window-x="0"
     inkscape:window-y="18"
     inkscape:window-maximized="0"
     inkscape:current-layer="Layer_1" /><path
     style="fill:#ffffff;stroke:#ffffff;stroke-width:4.14330006;stroke-miterlimit:10"
     inkscape:connector-curvature="0"
     id="path5"
     d="m 163.7107,207.067 c 0,22.497 18.248,40.753 40.754,40.753 22.504,0 40.754,-18.248 40.748,-40.753 0.006,-22.505 -18.24,-40.753 -40.744,-40.753 -22.514,-0.001 -40.75,18.252 -40.758,40.753 z"
     stroke-miterlimit="10" /><line
     style="fill:#ff5792;stroke:#ffffff;stroke-width:4.14330006;stroke-miterlimit:10"
     id="line7"
     y2="87.931"
     x2="236.84169"
     y1="87.931"
     x1="736.77368"
     stroke-miterlimit="10" /><path
     style="fill:#ffffff;stroke:#ffffff;stroke-width:4.14330006;stroke-miterlimit:10"
     inkscape:connector-curvature="0"
     id="path9"
     d="m 209.6757,87.931 c 0.004,7.498 6.082,13.587 13.588,13.579 7.506,0.004 13.582,-6.077 13.578,-13.579 0.004,-7.502 -6.076,-13.579 -13.574,-13.579 -7.514,0 -13.588,6.077 -13.592,13.579 z"
     stroke-miterlimit="10" /><path
     style="fill:none;stroke:#ffffff;stroke-width:8.28660011;stroke-miterlimit:10"
     inkscape:connector-curvature="0"
     id="path11"
     d="m 462.0667,65.77 c 0,144.174 -69.6,144.17 -216.979,144.364"
     stroke-miterlimit="10" /><line
     style="fill:#58595b;stroke:#ffffff;stroke-width:8.28660011;stroke-miterlimit:10"
     id="line13"
     y2="65.761002"
     x2="389.81967"
     y1="65.769997"
     x1="736.77368"
     stroke-miterlimit="10" /><path
     style="fill:none;stroke:#ffffff;stroke-width:12.42990017;stroke-miterlimit:10"
     inkscape:connector-curvature="0"
     id="path15"
     d="m 505.2787,111.989 c 0,93.847 -86.084,169.786 -192.465,169.782"
     stroke-miterlimit="10" /><path
     style="fill:#ffffff;stroke:#ffffff;stroke-width:4.14330006;stroke-miterlimit:10"
     inkscape:connector-curvature="0"
     id="path17"
     d="m 245.2127,281.771 c 0,18.754 15.211,33.964 33.961,33.96 18.75,0 33.959,-15.206 33.955,-33.964 0,-18.746 -15.205,-33.948 -33.955,-33.948 -18.75,0 -33.955,15.202 -33.961,33.952 z"
     stroke-miterlimit="10" /><line
     style="fill:#58595b;stroke:#ffffff;stroke-width:12.42990017;stroke-miterlimit:10"
     id="line19"
     y2="108.967"
     x2="171.33769"
     y1="108.967"
     x1="736.77368"
     stroke-miterlimit="10" /><path
     style="fill:#ffffff;stroke:#ffffff;stroke-width:4.14330006;stroke-miterlimit:10"
     inkscape:connector-curvature="0"
     id="path21"
     d="m 35.5037,106.567 c 0.004,37.512 30.414,67.911 67.92,67.911 37.504,0 67.91,-30.399 67.91,-67.911 0.004,-37.508 -30.402,-67.916 -67.906,-67.916 -37.51,-0.003 -67.92,30.408 -67.924,67.916 z"
     stroke-miterlimit="10" /><path
     style="fill:#ffffff;stroke:#ffffff;stroke-width:4.14330006;stroke-miterlimit:10"
     inkscape:connector-curvature="0"
     id="path23"
     d="m 335.4917,65.766 c 0,15.003 12.158,27.17 27.166,27.174 15.004,-0.008 27.166,-12.171 27.162,-27.178 0.004,-14.999 -12.162,-27.162 -27.166,-27.162 -15.004,-0.005 -27.162,12.162 -27.162,27.166 z"
     stroke-miterlimit="10" /></svg>