<?xml version="1.0" encoding="UTF-8" standalone="no"?>
<!-- Generator: Adobe Illustrator 16.0.0, SVG Export Plug-In . SVG Version: 6.00 Build 0)  -->

<svg
   xmlns:dc="http://purl.org/dc/elements/1.1/"
   xmlns:cc="http://creativecommons.org/ns#"
   xmlns:rdf="http://www.w3.org/1999/02/22-rdf-syntax-ns#"
   xmlns:svg="http://www.w3.org/2000/svg"
   xmlns="http://www.w3.org/2000/svg"
   xmlns:sodipodi="http://sodipodi.sourceforge.net/DTD/sodipodi-0.dtd"
   xmlns:inkscape="http://www.inkscape.org/namespaces/inkscape"
   version="1.1"
   id="Layer_1"
   x="0px"
   y="0px"
   width="708.66px"
   height="708.661px"
   viewBox="0 0 708.66 708.661"
   enable-background="new 0 0 708.66 708.661"
   xml:space="preserve"
   inkscape:version="0.48.5 r10040"
   sodipodi:docname="sprily-logo-inverse-italic font.svg"><metadata
     id="metadata35"><rdf:RDF><cc:Work
         rdf:about=""><dc:format>image/svg+xml</dc:format><dc:type
           rdf:resource="http://purl.org/dc/dcmitype/StillImage" /><dc:title></dc:title></cc:Work></rdf:RDF></metadata><defs
     id="defs33" /><sodipodi:namedview
     pagecolor="#ffffff"
     bordercolor="#666666"
     borderopacity="1"
     objecttolerance="10"
     gridtolerance="10"
     guidetolerance="10"
     inkscape:pageopacity="0"
     inkscape:pageshadow="2"
     inkscape:window-width="1596"
     inkscape:window-height="880"
     id="namedview31"
     showgrid="false"
     inkscape:zoom="1.3042632"
     inkscape:cx="281.37719"
     inkscape:cy="326.03689"
     inkscape:window-x="0"
     inkscape:window-y="18"
     inkscape:window-maximized="0"
     inkscape:current-layer="Layer_1" /><path
     stroke-miterlimit="10"
     d="m 464.898,528.479 c 0,30.352 -24.535,54.947 -54.793,54.947 -30.266,0 -54.803,-24.596 -54.803,-54.947 0,-30.346 24.537,-54.947 54.803,-54.947 30.258,-10e-4 54.793,24.601 54.793,54.947 z"
     id="path9"
     style="fill:#ffffff;stroke:#ffffff;stroke-miterlimit:10"
     inkscape:connector-curvature="0" /><path
     stroke-miterlimit="10"
     d="m 299.982,183.227 c -94.318,0 -170.756,76.525 -170.756,171.105"
     id="path11"
     style="opacity:0.20000000000000001;fill:none;stroke:#ffffff;stroke-width:6;stroke-miterlimit:10"
     inkscape:connector-curvature="0" /><path
     stroke-miterlimit="10"
     d="m 410.105,183.227 c 0,30.342 -24.531,54.943 -54.805,54.943 -30.262,0 -54.797,-24.602 -54.797,-54.943 0,-30.355 24.535,-54.949 54.797,-54.949 30.274,-0.001 54.805,24.593 54.805,54.949 z"
     id="path13"
     style="opacity:0.20000000000000001;fill:#ffffff;stroke:#ffffff;stroke-miterlimit:10"
     inkscape:connector-curvature="0" /><path
     stroke-miterlimit="10"
     d="m 410.105,528.482 c 0,0 -110.383,0 -110.383,-0.004 -94.318,0 -170.637,-76.529 -170.637,-171.107 H -2.836"
     id="path15"
     style="fill:none;stroke:#ffffff;stroke-width:6;stroke-miterlimit:10"
     inkscape:connector-curvature="0" /><path
     stroke-miterlimit="10"
     d="m 327.908,528.486 c 0,-45.531 36.805,-82.428 82.197,-82.428 45.398,0 82.197,36.896 82.197,82.428 0,45.516 -36.799,82.422 -82.197,82.422 -45.392,0 -82.197,-36.906 -82.197,-82.422 z"
     id="path17"
     style="opacity:0.20000000000000001;fill:#ffffff;stroke:#ffffff;stroke-miterlimit:10"
     inkscape:connector-curvature="0" /><path
     stroke-miterlimit="10"
     d="M 144.611,367.006"
     id="path19"
     style="fill:#ffffff;stroke:#ffffff;stroke-miterlimit:10"
     inkscape:connector-curvature="0" /><path
     stroke-miterlimit="10"
     d="m 368.58165,369.83246 c 0,21.674 -17.504,39.242 -39.123,39.242 -21.621,0 -39.129,-17.568 -39.129,-39.242 0,-21.662 17.508,-39.227 39.129,-39.227 21.619,0.001 39.123,17.565 39.123,39.227 z"
     id="path21"
     style="opacity:0.10000000000000001;fill:#ffffff;stroke:#ffffff;stroke-miterlimit:10"
     inkscape:connector-curvature="0" /><path
     stroke-miterlimit="10"
     d="M 428.787,295.938"
     id="path23"
     style="fill:#ffffff;stroke:#ffffff;stroke-miterlimit:10"
     inkscape:connector-curvature="0" /><path
     stroke-miterlimit="10"
     d="M 168.334,348.031"
     id="path25"
     style="fill:#ffffff;stroke:#ffffff;stroke-miterlimit:10"
     inkscape:connector-curvature="0" /><path
     stroke-miterlimit="10"
     d="M 198.057,399.279"
     id="path27"
     style="fill:#ffffff;stroke:#ffffff;stroke-miterlimit:10"
     inkscape:connector-curvature="0" /><text
     transform="scale(0.99864909,1.0013527)"
     stroke-miterlimit="10"
     font-size="186.0925"
     id="text29"
     x="177.32065"
     y="406.45407"><tspan
       style="-inkscape-font-specification:Josefin Sans;font-family:Josefin Sans,sans;font-style:normal;fill:#ffffff;stroke:#ffffff"
       id="tspan2992">Sprily</tspan></text>
</svg>
